<svg xmlns="http://www.w3.org/2000/svg" width="285.6" height="284.75" viewBox="0 0 285.6 284.75" fill="#FFF"><title>home-small</title><path d="M150,8.12c-78.2,0-142.8,63.76-142.8,142S71.8,292.88,150,292.88s142.8-64.6,142.8-142.8S228.2,8.12,150,8.12Zm52.7,208.26c-33.15-20.4-75.65-25.5-124.95-14.46-11.9,1.7-13.6-15.3-3.4-17,54.4-12.75,100.3-6.8,137.7,16.16C221.4,207,212.05,221.48,202.7,216.38Zm14.45-38.26c-38.25-23.79-96.9-30.59-141.95-17-14.45,4.26-19.55-17.84-6-21.24,51.85-15.3,115.6-7.65,159.8,19.54C241,167.08,229.05,185.78,217.15,178.12Zm17-44.19c-45.9-27.2-122.4-29.75-165.75-16.15-14.45,5.1-23.8-19.55-7.65-25.5C110.9,77,195.9,79.53,248.6,111,263.05,118.62,249.45,142.43,234.15,133.93Z" transform="translate(-7.2 -8.13)"/></svg>